<svg width="31" height="25" viewBox="0 0 31 25" fill="none" xmlns="http://www.w3.org/2000/svg">
<g clip-path="url(#clip0_1_175)">
<path d="M30.9138 13.5275C30.9273 11.1275 30.8526 9.0283 30.6856 7.11025C30.4519 4.42506 28.9622 2.94576 26.3778 2.83117C25.2803 2.78256 24.1631 2.81962 23.0826 2.85435C22.5914 2.87043 22.0835 2.8872 21.5844 2.89554C21.4231 2.8982 21.2627 2.89737 21.1244 2.89667H21.0502C20.9938 2.73521 20.9399 2.57782 20.8869 2.42342C20.757 2.04529 20.6333 1.68755 20.4985 1.33315C20.4934 1.31545 20.4887 1.29752 20.4836 1.27992C20.42 1.03469 20.2888 0.812465 20.1051 0.638825C19.7652 0.242876 19.296 0.0506108 18.7002 0.0657728C17.8915 0.0869534 17.0689 0.101998 16.2734 0.116466C15.0545 0.138688 13.794 0.16162 12.5547 0.207453C11.8892 0.23199 11.5249 0.348449 11.2891 0.645324C11.1338 0.737657 11.0067 0.870812 10.9214 1.03047C10.6262 1.66092 10.4566 2.34329 10.4221 3.03915H10.222C9.904 3.03915 9.61036 3.03826 9.31661 3.04011C8.96478 3.04208 8.61282 3.04208 8.26087 3.04219C7.40451 3.04219 6.51885 3.04218 5.64797 3.07158C4.5871 3.11084 3.54295 3.3493 2.56953 3.77468C1.19976 4.36496 0.515102 5.33474 0.476266 6.73821C0.449991 7.69203 0.41312 8.66184 0.377511 9.59958C0.346626 10.4123 0.314624 11.2527 0.289617 12.0798C0.276249 12.5247 0.275511 12.9771 0.274705 13.4146C0.273322 14.1835 0.271854 14.9786 0.201441 15.7518C0.0231623 17.7084 0.0546103 19.2784 0.300421 20.6927C0.522607 21.9703 1.11863 23.0028 2.02443 23.6788C2.84908 24.3116 3.8504 24.6692 4.88775 24.7011C5.42969 24.7165 5.97159 24.7333 6.51345 24.7513C7.85982 24.7947 9.25192 24.8395 10.6223 24.8503C13.5258 24.8734 16.2486 24.885 18.8628 24.885C20.0605 24.885 21.2378 24.8826 22.3945 24.8778C23.7017 24.8726 25.1142 24.8121 26.7134 24.6927C28.7301 24.5422 30.1007 23.4311 30.6757 21.4784C30.8715 20.8248 30.9759 20.1469 30.986 19.4645C30.9916 18.4719 30.9705 17.4634 30.9502 16.488C30.9293 15.5172 30.9078 14.5139 30.9138 13.5275ZM29.2238 16.6866C29.2344 17.6313 29.2455 18.5761 29.257 19.5209C29.266 20.2563 29.0943 20.9827 28.7571 21.6356C28.45 22.2374 27.9965 22.5947 27.4059 22.6967C26.7567 22.8271 26.0982 22.9047 25.4367 22.9289C23.0958 22.9464 20.7154 22.9437 18.4131 22.9415C17.5813 22.9406 16.7497 22.94 15.9181 22.9396C15.068 22.9396 14.2182 22.94 13.3687 22.9407C11.3162 22.9422 9.1943 22.9439 7.1075 22.9324C6.32359 22.9266 5.54055 22.8791 4.76164 22.7901C3.31501 22.6267 2.2874 21.6145 2.01301 20.0828C1.70808 18.3814 1.74302 16.6359 1.77668 14.9484C1.78255 14.6539 1.78822 14.3596 1.7926 14.0653C1.79959 13.5681 1.81011 13.0692 1.82417 12.5687C2.13366 12.6298 2.44734 12.6674 2.76248 12.6811C3.515 12.7063 4.27985 12.7042 5.0197 12.7023C5.37211 12.7015 5.72439 12.7003 6.07646 12.7023C6.21325 12.7031 6.34829 12.7109 6.50467 12.72C6.54662 12.7225 6.58962 12.7249 6.6341 12.7274C6.6341 12.8689 6.63321 13.0067 6.63252 13.1416C6.63079 13.512 6.62903 13.8618 6.63629 14.2121C6.65185 14.9604 6.9608 15.3168 7.6693 15.4042C8.33902 15.4774 9.01239 15.5116 9.68603 15.5069H9.70989C11.0067 15.5069 11.4961 15.006 11.5124 13.6666C11.5153 13.4305 11.5145 13.194 11.5137 12.9531V12.7305H20.1724C20.1724 12.7587 20.1724 12.7866 20.1724 12.8141C20.1715 12.9582 20.1705 13.0918 20.1745 13.2247C20.1816 13.4686 20.1887 13.6718 20.2099 13.8826C20.2895 14.6752 20.6363 15.0126 21.4085 15.0471C22.0244 15.0746 22.6843 15.0702 23.3693 15.0328C24.0387 14.9967 24.4442 14.6185 24.5416 13.9388C24.5838 13.6442 24.6022 13.343 24.6214 13.0245C24.6285 12.907 24.6359 12.7857 24.6444 12.6592L25.6096 12.6598C26.5613 12.6604 27.4923 12.6612 28.4231 12.6567C28.6741 12.658 28.925 12.6465 29.1748 12.6219C29.1931 13.9878 29.2086 15.3503 29.2238 16.6866ZM13.6662 1.66659C14.4631 1.63708 15.2713 1.62598 16.0645 1.61799C16.9038 1.63871 17.766 1.65932 18.6164 1.67275C18.6874 1.67255 18.7581 1.67999 18.8275 1.69496C18.9082 1.7816 18.9601 1.89134 18.9759 2.00895C19.0296 2.24251 19.0996 2.47197 19.1853 2.69565C19.2012 2.79643 19.2186 2.8971 19.2377 2.99772H12.0225C12.3139 1.71694 12.3332 1.71613 13.6668 1.66671L13.6662 1.66659ZM23.0505 12.7291C23.0462 12.7665 23.0419 12.8035 23.0376 12.8405C23.021 13.0259 22.9911 13.2098 22.9483 13.3909C22.9196 13.4663 22.8634 13.5278 22.791 13.5629C22.4429 13.6005 22.0916 13.6172 21.72 13.6349C21.6214 13.6395 21.5217 13.6443 21.4203 13.6495L21.3166 12.7291H23.0505ZM9.83785 12.742V13.8481H8.05098L7.90592 12.7995C8.28161 12.6621 9.19249 12.6341 9.83842 12.742H9.83785ZM29.0156 10.9056C28.9768 10.9084 28.9382 10.9111 28.8995 10.9127C28.6973 10.921 28.4951 10.9308 28.2929 10.9407C27.8539 10.9619 27.3999 10.9839 26.9542 10.9898C24.8821 11.0174 22.8099 11.043 20.7378 11.0666C18.8882 11.0886 17.0387 11.1113 15.1893 11.1347C11.6432 11.181 8.09716 11.2296 4.55124 11.2806L1.86091 11.3183C1.88983 10.4561 1.92349 9.59727 1.9568 8.75283C1.97432 8.31 1.99159 7.86728 2.00856 7.42469C2.07241 5.73928 2.37961 5.34551 3.94275 4.94621C4.90549 4.69665 5.89427 4.56245 6.88844 4.54643C8.95195 4.52131 11.0506 4.52482 13.0804 4.52806C14.7334 4.53084 16.443 4.53373 18.1244 4.521C19.0809 4.51394 20.051 4.47005 20.9897 4.42769C21.7361 4.39401 22.5079 4.35918 23.2665 4.34321C24.3068 4.3211 25.3828 4.29841 26.4375 4.40848C27.984 4.5697 28.6962 5.29146 28.8952 6.89945C29.0171 7.77734 29.0932 8.66103 29.1235 9.5469C29.1321 9.99614 29.1401 10.4466 29.1475 10.8981C29.1034 10.8997 29.0592 10.9028 29.0161 10.9056H29.0156Z" fill="black"/>
</g>
<defs>
<clipPath id="clip0_1_175">
<rect width="31" height="25" fill="white"/>
</clipPath>
</defs>
</svg>
